<?xml version="1.0" standalone="no"?>
<!DOCTYPE svg PUBLIC "-//W3C//DTD SVG 20010904//EN"
 "http://www.w3.org/TR/2001/REC-SVG-20010904/DTD/svg10.dtd">
<svg version="1.0" xmlns="http://www.w3.org/2000/svg"
 width="150.000000pt" height="150.000000pt" viewBox="0 0 150.000000 150.000000"
 preserveAspectRatio="xMidYMid meet">

<g transform="translate(0.000000,150.000000) scale(0.100000,-0.100000)"
fill="#000000" stroke="none">
<path d="M0 750 l0 -750 750 0 750 0 0 750 0 750 -750 0 -750 0 0 -750z m667
388 c-3 -8 -6 -5 -6 6 -1 11 2 17 5 13 3 -3 4 -12 1 -19z m-10 -100 c-3 -7 -5
-2 -5 12 0 14 2 19 5 13 2 -7 2 -19 0 -25z m-75 -9 c11 -14 21 -46 24 -70 3
-32 2 -39 -5 -24 -5 11 -25 36 -45 54 -41 40 -48 74 -15 69 12 -2 31 -15 41
-29z m358 -20 c-7 -11 -14 -18 -17 -15 -8 8 5 36 17 36 7 0 7 -6 0 -21z m-293
-31 c-3 -8 -6 -5 -6 6 -1 11 2 17 5 13 3 -3 4 -12 1 -19z m510 -50 c-3 -8 -6
-5 -6 6 -1 11 2 17 5 13 3 -3 4 -12 1 -19z m-567 -4 c0 -2 -9 -4 -21 -4 -11 0
-18 4 -14 10 5 8 35 3 35 -6z m-50 -13 c20 -8 16 -9 -20 -3 -25 4 -73 7 -107
7 -34 0 -56 4 -50 8 15 10 144 2 177 -12z m-212 -21 c-7 -10 -14 -17 -17 -15
-4 4 18 35 25 35 2 0 -1 -9 -8 -20z m612 0 c0 -5 -5 -10 -11 -10 -5 0 -7 5 -4
10 3 6 8 10 11 10 2 0 4 -4 4 -10z m179 -14 c-2 -2 -35 -6 -74 -9 -43 -3 -60
-2 -45 3 24 8 127 14 119 6z m-348 -20 c-32 -38 -189 -86 -276 -85 l-60 2 68
8 c38 5 101 20 140 34 40 14 77 27 82 28 6 2 19 8 30 15 26 15 30 15 16 -2z
m153 -46 c-7 -40 -6 -40 25 -40 28 0 31 -3 26 -20 -4 -11 -7 -30 -9 -43 -1
-13 -5 -27 -8 -32 -3 -6 -9 -25 -13 -42 -3 -18 -11 -33 -17 -33 -10 0 -8 38 8
124 6 31 4 38 -7 34 -8 -2 -22 -39 -33 -86 -12 -52 -24 -82 -33 -82 -17 0 -17
-8 12 122 22 97 37 138 51 138 2 0 1 -18 -2 -40z m118 7 c-1 -9 6 -17 20 -20
13 -2 3 -5 -22 -5 -25 0 -39 2 -32 5 6 2 12 14 12 25 0 11 5 18 13 15 6 -2 11
-11 9 -20z m-242 5 c0 -4 18 -6 39 -4 36 4 39 2 34 -16 -3 -11 -16 -31 -30
-44 -25 -22 -25 -22 -14 -1 6 12 11 26 11 32 0 13 -27 14 -35 2 -7 -13 -56
-233 -52 -237 8 -8 47 29 47 45 0 10 9 26 19 35 19 17 19 17 7 -24 -13 -44
-43 -69 -82 -70 l-21 0 18 93 c10 50 21 102 24 114 l5 23 -45 -22 c-36 -18
-47 -20 -58 -9 -10 10 -9 11 5 6 24 -9 121 52 114 71 -3 8 -1 14 4 14 6 0 10
-3 10 -8z m374 0 c-6 -4 -14 -23 -17 -42 -4 -19 -15 -70 -24 -113 -16 -70 -20
-78 -38 -73 -11 3 -32 6 -46 6 -25 0 -26 1 -18 43 4 23 13 61 19 85 12 39 15
42 46 42 39 0 50 29 12 31 -21 1 -21 2 -3 6 11 3 24 9 30 14 5 5 18 9 30 9 12
0 15 -3 9 -8z m-504 -52 c0 -5 -2 -10 -4 -10 -3 0 -8 5 -11 10 -3 6 -1 10 4
10 6 0 11 -4 11 -10z m360 -7 c0 -5 -7 -43 -17 -85 -13 -57 -22 -78 -33 -78
-14 0 -14 9 4 85 12 53 25 85 33 85 7 0 13 -3 13 -7z m-722 -30 c68 7 126 -9
116 -33 -3 -8 -8 -29 -11 -47 -4 -23 -13 -35 -32 -41 -26 -9 -26 -9 -4 -20 19
-11 20 -15 10 -42 -15 -40 -42 -41 -34 0 11 55 -34 44 -48 -12 -9 -34 -34 -33
-29 1 8 49 25 136 30 154 4 13 -1 17 -21 17 -30 0 -85 26 -85 40 0 6 11 3 25
-6 20 -13 39 -15 83 -11z m192 7 c0 -5 -2 -10 -4 -10 -3 0 -8 5 -11 10 -3 6
-1 10 4 10 6 0 11 -4 11 -10z m751 -11 c16 -8 15 -15 -3 -87 l-19 -78 -45 10
c-38 9 -44 14 -40 31 2 11 10 48 17 83 l13 63 31 -7 c16 -3 37 -10 46 -15z
m-604 -5 c-3 -3 -25 -8 -49 -10 l-43 -4 45 13 c44 13 59 13 47 1z m67 -26 c-4
-18 -8 -42 -9 -54 -1 -11 -4 -24 -7 -30 -3 -5 -9 -28 -13 -51 -9 -54 -35 -68
-29 -15 5 41 13 87 21 117 5 18 4 19 -11 4 -9 -8 -25 -44 -34 -79 -17 -60 -42
-92 -42 -55 0 10 5 13 13 9 9 -6 9 -5 0 7 -17 21 14 146 39 152 10 3 16 1 12
-4 -10 -17 12 -9 29 11 26 31 40 25 31 -12z m-114 -14 c0 -20 -24 -94 -30 -94
-5 0 -25 -16 -45 -35 -21 -19 -34 -27 -31 -17 5 13 2 12 -10 -3 -16 -19 -16
-18 -10 15 4 19 9 54 13 77 5 40 7 42 52 51 61 13 61 13 61 6z m-136 -61 c-8
-27 -15 -50 -15 -53 0 -3 -3 -16 -6 -28 -4 -18 -8 -21 -14 -10 -7 10 -9 8 -9
-6 0 -11 -3 -16 -6 -13 -4 4 -1 40 7 82 11 67 15 75 35 75 22 0 22 -1 8 -47z
m99 -94 c-4 -16 -8 -17 -14 -7 -13 19 -11 28 5 28 9 0 12 -7 9 -21z m445 -6
c-10 -2 -26 -2 -35 0 -10 3 -2 5 17 5 19 0 27 -2 18 -5z m70 0 c-10 -2 -26 -2
-35 0 -10 3 -2 5 17 5 19 0 27 -2 18 -5z"/>
<path d="M1080 725 c0 -14 0 -26 1 -27 0 -2 -7 -20 -16 -41 -14 -34 -14 -38 0
-43 20 -8 25 -3 29 32 3 16 9 42 15 57 15 40 14 47 -9 47 -15 0 -20 -7 -20
-25z"/>
<path d="M342 674 c-14 -52 -12 -57 11 -48 17 6 40 71 31 86 -13 20 -31 4 -42
-38z"/>
<path d="M1190 673 c-7 -32 -15 -64 -17 -70 -3 -8 3 -13 16 -13 12 0 21 6 22
13 0 6 3 23 6 37 10 43 9 83 -3 87 -6 2 -16 -22 -24 -54z"/>
<path d="M532 648 c-6 -7 -13 -31 -17 -53 l-7 -40 21 20 c22 22 40 85 23 85
-5 0 -14 -6 -20 -12z"/>
</g>
</svg>
