<?xml version="1.0" standalone="no"?>
<!DOCTYPE svg PUBLIC "-//W3C//DTD SVG 20010904//EN"
 "http://www.w3.org/TR/2001/REC-SVG-20010904/DTD/svg10.dtd">
<svg version="1.0" xmlns="http://www.w3.org/2000/svg"
 width="632.000000pt" height="629.000000pt" viewBox="0 0 632.000000 629.000000"
 preserveAspectRatio="xMidYMid meet">

<g transform="translate(0.000000,629.000000) scale(0.100000,-0.100000)"
fill="#000000" stroke="none">
<path d="M0 3145 l0 -3145 3160 0 3160 0 0 3145 0 3145 -3160 0 -3160 0 0
-3145z m3944 1520 c-23 -92 -29 -287 -12 -368 8 -37 12 -64 8 -60 -20 22 -52
148 -57 221 -3 45 -9 85 -13 87 -10 6 -82 -115 -115 -194 -52 -125 -67 -205
-72 -381 -4 -135 -1 -191 16 -308 11 -79 24 -155 27 -168 6 -22 4 -24 -17 -20
-13 3 -58 10 -99 16 -41 6 -111 20 -155 32 -80 21 -192 65 -184 72 2 2 33 -2
69 -10 97 -20 300 -47 307 -40 3 3 -1 41 -10 83 -89 419 -5 757 258 1041 32
34 59 61 61 60 1 -2 -4 -30 -12 -63z m769 -517 c25 -137 39 -285 32 -353 -8
-79 -36 -237 -41 -232 -2 2 -9 75 -14 163 -10 155 -27 326 -36 352 -3 10 -13
7 -35 -13 -45 -37 -122 -74 -177 -85 -26 -4 -49 -7 -50 -5 -2 2 19 15 47 29
57 29 174 135 216 196 15 22 31 40 35 40 3 0 14 -42 23 -92z m-2473 -108 c46
-71 80 -172 80 -238 l-1 -57 -22 65 c-23 66 -101 195 -123 204 -8 3 -18 -10
-25 -32 -37 -115 -152 -308 -244 -410 -89 -98 -101 -95 -41 11 101 180 169
320 268 557 l10 25 34 -40 c19 -22 48 -60 64 -85z m2265 -260 c16 -17 20 -32
18 -83 -3 -104 -72 -257 -184 -408 -35 -48 -52 -81 -59 -119 -13 -68 -12 -71
7 -35 50 94 132 153 194 140 47 -11 62 -44 57 -124 -7 -90 -54 -186 -130 -264
l-58 -59 36 -46 c19 -25 63 -102 97 -170 39 -79 79 -144 109 -177 l48 -53 -77
-7 c-72 -7 -77 -6 -95 16 -56 71 -88 127 -144 249 -53 117 -65 135 -87 138
-29 4 -28 7 -52 -163 -9 -60 -18 -111 -21 -114 -2 -3 -31 -7 -64 -9 l-60 -4 0
58 0 59 -26 -40 c-56 -85 -99 -114 -145 -100 -26 8 -49 56 -49 100 0 19 -3 35
-7 35 -5 -1 -19 -23 -33 -51 -54 -112 -164 -158 -222 -93 -19 22 -38 86 -38
129 0 30 -1 29 -27 -15 -46 -78 -84 -120 -137 -150 -120 -69 -234 -19 -269
119 l-13 52 -28 -64 c-40 -95 -79 -143 -131 -163 -41 -15 -46 -15 -70 0 -13 9
-33 31 -42 49 -26 47 -23 299 6 460 11 66 21 124 21 129 0 6 -14 8 -30 6 -31
-5 -31 -4 -28 36 3 39 5 41 39 44 l36 3 39 192 39 192 53 8 c30 5 56 6 60 3 7
-8 -15 -213 -33 -308 l-13 -68 29 0 c30 0 35 -12 23 -57 -4 -16 -15 -23 -37
-25 -31 -3 -32 -5 -58 -103 -46 -169 -63 -405 -31 -437 16 -16 48 7 76 55 32
54 81 188 101 273 34 147 124 286 210 325 149 68 238 -54 158 -219 -34 -72
-109 -144 -188 -182 -60 -29 -65 -33 -65 -63 0 -217 192 -185 296 50 14 32 41
109 60 173 58 192 132 291 227 307 42 6 81 -14 92 -47 9 -30 25 -24 25 9 0 21
6 30 23 35 22 6 97 8 97 3 0 -2 -9 -43 -19 -92 -37 -166 -82 -454 -79 -496 l3
-41 28 22 c30 24 73 102 112 205 15 40 39 155 61 293 54 345 127 599 187 660
52 52 141 62 182 22z m-1709 -29 c51 -31 67 -80 61 -185 -8 -141 -60 -281
-169 -454 l-43 -67 -1 -165 c-2 -194 -25 -330 -82 -480 -41 -108 -127 -242
-200 -313 -46 -45 -54 -49 -118 -57 -38 -5 -80 -9 -94 -9 -23 -1 -22 1 10 16
19 10 65 47 101 83 105 104 172 246 203 430 18 108 32 310 22 310 -4 0 -39
-28 -79 -63 -40 -34 -81 -69 -93 -77 -16 -11 -23 -31 -28 -80 -12 -105 -61
-240 -117 -324 -45 -68 -114 -137 -135 -136 -8 1 -62 78 -72 102 -2 4 25 36
61 71 45 45 76 87 105 146 65 128 63 130 -83 56 -137 -69 -277 -121 -429 -160
-55 -14 -101 -27 -104 -29 -2 -2 4 -32 14 -67 23 -81 98 -193 162 -242 48 -36
142 -77 178 -77 15 0 15 -3 -3 -22 -11 -13 -26 -33 -32 -46 -10 -20 -17 -22
-49 -16 -118 21 -234 96 -306 198 -49 68 -89 155 -101 219 l-7 37 -154 0 c-85
0 -154 3 -154 7 0 4 7 32 16 63 l16 56 126 0 126 -1 12 95 c16 124 37 197 87
295 57 111 167 222 268 269 84 40 190 60 264 51 154 -20 276 -145 307 -315 7
-33 15 -59 19 -58 4 2 46 35 92 75 l85 72 4 238 c5 257 18 335 71 440 57 110
165 162 243 114z m2267 -717 c210 -72 262 -376 101 -595 -33 -46 -38 -49 -53
-35 -10 9 -32 19 -49 22 l-32 6 30 38 c40 51 68 119 81 199 14 82 -7 177 -49
230 -101 125 -288 77 -349 -89 -9 -25 -19 -48 -23 -53 -5 -6 -108 18 -118 28
-5 5 39 87 66 123 35 46 117 103 176 124 64 22 158 23 219 2z m-1 -295 c10
-48 9 -63 -11 -127 -25 -83 -62 -131 -125 -161 -44 -22 -120 -28 -146 -11 -17
11 -9 14 50 24 112 19 196 152 188 299 -4 64 -3 66 14 49 10 -10 23 -42 30
-73z m-4 -391 c-3 -9 -93 -22 -289 -43 -311 -33 -332 -39 -376 -105 -43 -63
-24 -163 37 -195 40 -21 77 -19 368 11 138 15 255 24 259 20 18 -17 -30 -26
-264 -50 -306 -31 -338 -32 -381 -6 -35 21 -72 74 -72 103 0 15 -6 17 -47 12
-27 -3 -104 -12 -172 -20 -68 -7 -128 -18 -133 -23 -5 -5 -8 -44 -6 -88 l3
-79 58 3 c45 3 57 1 57 -11 0 -11 -18 -17 -69 -22 -39 -4 -74 -5 -78 -2 -10 7
-15 424 -5 430 4 3 40 8 80 11 60 6 72 5 72 -8 0 -10 -15 -17 -47 -21 -75 -10
-73 -7 -73 -89 0 -41 3 -77 8 -79 4 -3 66 1 137 9 228 25 212 21 219 57 7 40
57 102 99 124 21 11 114 26 277 44 287 31 343 34 338 17z m-1203 -103 c14 -13
25 -33 25 -43 0 -27 -27 -36 -35 -12 -23 73 -125 62 -125 -12 0 -23 17 -47 79
-112 85 -88 96 -110 87 -161 -16 -86 -142 -114 -186 -42 -11 18 -20 40 -20 50
0 28 30 19 41 -12 6 -18 22 -34 40 -42 26 -10 34 -9 57 8 56 42 42 87 -59 184
-74 72 -79 80 -79 119 0 61 41 100 105 100 35 0 51 -6 70 -25z m-235 -180 c0
-212 -5 -231 -69 -259 -51 -23 -102 -15 -131 21 -19 24 -20 40 -20 214 0 182
1 189 20 189 19 0 20 -7 20 -190 l0 -190 25 -16 c28 -18 69 -13 98 13 15 14
17 38 17 203 0 103 3 190 7 193 3 4 12 7 20 7 10 0 13 -38 13 -185z m-352 144
c54 -19 66 -50 70 -184 2 -68 -1 -138 -7 -161 -14 -54 -58 -94 -110 -101 -36
-5 -44 -2 -76 30 l-35 35 0 145 c0 133 2 147 23 178 12 19 38 42 57 51 41 21
39 21 78 7z m-228 -239 c0 -213 -1 -220 -20 -220 -19 0 -20 7 -20 105 l0 105
-42 -6 c-96 -12 -88 -2 -88 -119 0 -98 -1 -105 -20 -105 -19 0 -20 7 -20 106
l0 106 -32 -5 c-18 -4 -70 -9 -114 -13 -73 -6 -83 -9 -93 -30 -6 -14 -21 -29
-33 -34 -20 -9 -352 -48 -561 -66 -66 -6 -80 -4 -97 11 -26 24 -26 75 0 103
24 25 24 26 325 57 132 14 259 27 281 30 35 5 47 2 73 -21 30 -25 36 -26 104
-20 40 4 89 10 110 13 l37 6 0 98 c0 92 1 99 20 99 19 0 20 -7 20 -98 l0 -99
33 4 c17 2 47 6 65 9 l32 5 0 93 c0 94 3 106 27 106 10 0 13 -43 13 -220z"/>
<path d="M4396 3675 c-21 -32 -52 -151 -60 -230 l-6 -60 28 60 c34 71 70 178
74 219 4 38 -15 43 -36 11z"/>
<path d="M4341 3121 c-34 -32 -99 -163 -108 -217 -5 -31 -4 -34 20 -34 50 0
151 145 163 234 6 44 6 46 -19 46 -14 0 -39 -13 -56 -29z"/>
<path d="M3761 3061 c-50 -53 -99 -237 -102 -382 -2 -111 14 -131 69 -84 39
33 80 127 103 238 42 205 9 312 -70 228z"/>
<path d="M3327 3042 c-15 -9 -41 -43 -57 -75 -28 -57 -57 -163 -46 -174 2 -3
19 5 36 17 73 52 144 186 120 229 -13 25 -17 25 -53 3z"/>
<path d="M2701 3667 c-68 -34 -87 -120 -76 -343 4 -85 10 -154 15 -154 10 0
95 185 115 250 9 30 19 92 22 136 5 74 4 83 -16 103 -24 24 -28 25 -60 8z"/>
<path d="M1862 3108 c-75 -11 -139 -47 -203 -114 -92 -98 -150 -247 -165 -426
l-7 -80 44 7 c85 14 270 65 358 99 119 46 272 122 292 146 27 32 11 136 -36
230 -55 108 -155 157 -283 138z m124 -94 c36 -17 70 -60 80 -100 l7 -29 -39
36 c-124 116 -269 58 -379 -152 -44 -84 -54 -84 -34 0 23 100 92 201 164 239
65 34 136 36 201 6z"/>
<path d="M3174 2159 c-17 -18 -19 -39 -22 -170 l-3 -148 26 -27 c30 -29 65
-27 100 7 17 16 20 36 23 146 3 89 0 140 -10 168 -12 37 -16 40 -54 43 -31 2
-45 -2 -60 -19z"/>
<path d="M1922 1888 c-28 -28 -1 -75 37 -63 40 12 38 75 -3 75 -12 0 -27 -5
-34 -12z"/>
</g>
</svg>
