<?xml version="1.0" encoding="utf-8"?>
<!-- Generator: Adobe Illustrator 26.0.0, SVG Export Plug-In . SVG Version: 6.00 Build 0)  -->
<svg version="1.1" id="Capa_1" xmlns="http://www.w3.org/2000/svg" xmlns:xlink="http://www.w3.org/1999/xlink" x="0px" y="0px"
	 viewBox="0 0 1000 1000" style="enable-background:new 0 0 1000 1000;" xml:space="preserve">
<style type="text/css">
	.st0{display:none;}
	.st1{display:inline;fill:#141414;}
	.st2{display:inline;}
	.st3{fill:#141414;}
	.st4{fill:#3D3D3D;}
	.st5{fill:#E85D04;}
	.st6{fill:#F2F2F2;}
	.st7{fill:#FFFFFF;}
	.st8{fill:url(#SVGID_1_);}
	.st9{fill:url(#SVGID_00000038404309748433186040000017866154223813392539_);}
	.st10{fill:none;}
	.st11{fill:none;stroke:#FFFFFF;stroke-width:9;stroke-linecap:round;stroke-miterlimit:10;}
</style>
<g id="bg" class="st0">
	<rect class="st1" width="1000" height="1000"/>
	<g class="st2">
		
			<image style="overflow:visible;" width="3589" height="3589" xlink:href="64BE9C57.png"  transform="matrix(0.24 0 0 0.24 69.36 69.36)">
		</image>
		<g>
			<rect x="99.4" y="99.4" class="st3" width="801.2" height="801.2"/>
		</g>
	</g>
</g>
<g>
	<path class="st4" d="M841.2,396.6h-24.6c-3.8,0-7.2,1.9-9.1,4.9l-44-7.8c-37-110-141-189.3-263.5-189.3
		c-122.5,0-226.5,79.3-263.5,189.3l-44,7.8c-2-2.9-5.3-4.9-9.1-4.9h-24.6c-6.1,0-11,4.9-11,11v149.3c0,6.1,4.9,11,11,11h24.6
		c3.8,0,7.2-1.9,9.1-4.9l44,7.8c37,110.1,141,189.3,263.5,189.3c122.5,0,226.5-79.3,263.5-189.3l44-7.8c2,2.9,5.3,4.9,9.1,4.9h24.6
		c6.1,0,11-4.9,11-11V407.6C852.2,401.5,847.3,396.6,841.2,396.6z M161,409.6c0.1,2.5,0.1,4.9,0.2,7.4c0.1,3.1,0.2,6.2,0.2,9.3
		l0.1,18.7l-0.1,18.7c0,6.2-0.2,12.4-0.3,18.7l-0.4,18.7c-0.1,6.2-0.3,12.4-0.5,18.7l-0.6,18.7l-0.8,18.7l-0.8-18.7l-0.6-18.7
		c-0.2-6.2-0.4-12.4-0.5-18.7l-0.4-18.7c-0.1-6.2-0.3-12.5-0.3-18.7l-0.1-18.7l0.1-18.7c0-3.1,0.1-6.2,0.2-9.3
		c0.1-3.1,0.1-6.2,0.3-9.3l0.1-2.4l2.1,0.2l24.6,2.2L161,409.6z M230.2,549.1l-35.8-6.3V421.8l35.8-6.4c-5.3,21.4-8.1,43.8-8.1,66.8
		C222,505.3,224.9,527.7,230.2,549.1z M741.8,569.4c-12.5,35.1-33.3,67.8-59.9,94.7c-26.9,26.7-59.6,47.4-94.7,59.9
		c-35.1,12.6-72.4,16.7-107.5,13.7c-35.4-2.9-68.6-13.4-97.1-28.7c-28.6-15.2-52.4-35-70.9-56.1c-18.5-21.1-31.9-43.4-41-64.2
		c-9.1-20.8-14.4-40-17.2-55.9c-3-16-3.4-28.7-3.8-37.4c0-8.7,0-13.3,0-13.3s0.3,4.6,0.7,13.2c0.8,8.6,2.1,21.2,5.6,36.9
		c3.5,15.7,9.5,34.3,19.2,54.3c9.8,20,23.7,41.1,42.2,61.1c18.6,19.8,42.1,38.3,69.8,52.3c27.7,14,59.7,23.3,93.3,25.7
		c16.9,1.2,34.1,0.7,51.3-1.6c17.2-2.4,34.3-6.5,50.9-12.5c33.3-12,64.2-31.8,89.6-57.2c25.4-25.4,45.2-56.3,57.2-89.6
		c6-16.6,10.2-33.8,12.5-50.9l0.9-6.4l0.5-6.4l0.5-6.4l0.2-6.6l0.2-6.2c0,0,0,0-0.1,0c-3.7,0.2-9,0.4-15.9,0.8
		c-1.2,0-2.4,0.1-3.7,0.2c0,4.8-0.1,9.6-0.1,14.4c0,5.2-0.3,10.2-0.4,15.2c-0.1,4.9-0.4,9.7-0.6,14.2c-0.2,4.5-0.5,8.8-0.8,12.7
		c-0.5,7.9-1.2,14.4-1.7,19c-0.5,4.6-0.9,7.2-0.9,7.2s-0.4-2.6-0.9-7.2c-0.5-4.6-1.2-11.1-1.7-19c-0.3-3.9-0.6-8.2-0.8-12.7
		c-0.2-4.5-0.5-9.3-0.6-14.2c-0.1-4.9-0.4-10-0.4-15.2c0-4.6-0.1-9.3-0.1-14c-12.1,0.5-26.9,1.1-43.7,1.5c-0.5,0-1.1,0-1.6,0
		c-0.1,9.2-0.1,18.4-0.2,27.4c0,10.1-0.3,20.1-0.4,29.7c-0.1,9.6-0.4,18.9-0.7,27.8c-0.2,8.8-0.6,17.2-0.9,24.9
		c-0.6,15.4-1.4,28.3-1.9,37.2c-0.6,9-1,14.1-1,14.1s-0.4-5.1-1-14.1c-0.6-9-1.3-21.8-1.9-37.2c-0.3-7.7-0.7-16.1-0.9-24.9
		c-0.3-8.8-0.6-18.1-0.7-27.8c-0.1-9.6-0.4-19.6-0.4-29.7c0-9-0.1-18.1-0.1-27.2c-8.3,0.2-17,0.4-26,0.6c-6.1,0.1-12.3,0.3-18.6,0.4
		c0,11.5-0.1,23-0.1,34.4c0,12.8-0.3,25.5-0.5,37.7c-0.1,12.2-0.4,24-0.7,35.2c-0.2,11.2-0.6,21.8-0.9,31.6
		c-0.6,19.5-1.4,35.8-2,47.2c-0.6,11.4-1.1,17.9-1.1,17.9s-0.4-6.5-1.1-17.9c-0.6-11.4-1.4-27.7-2-47.2c-0.3-9.8-0.7-20.4-0.9-31.6
		c-0.3-11.2-0.6-23-0.7-35.2c-0.1-12.2-0.4-24.8-0.5-37.7c0-11.3-0.1-22.7-0.1-34.2c-4.3,0.1-8.6,0.1-13,0.2
		c-10.3,0.1-20.8,0.3-31.4,0.4c-0.1,12.3-0.1,24.6-0.2,36.7c0,13.8-0.3,27.4-0.4,40.6c-0.1,13.2-0.4,25.9-0.7,38
		c-0.2,12.1-0.6,23.5-0.9,34c-0.6,21.1-1.4,38.7-2,51c-0.6,12.3-1.1,19.3-1.1,19.3s-0.4-7-1.1-19.3c-0.6-12.3-1.4-29.9-2-51
		c-0.3-10.5-0.7-22-0.9-34c-0.3-12.1-0.6-24.8-0.7-38c-0.1-13.2-0.4-26.8-0.4-40.6c-0.1-12.1-0.1-24.4-0.2-36.7c-1.1,0-2.1,0-3.1,0
		c-13.6,0.1-27.5,0.1-41.3,0.2c-0.1,12.7-0.1,25.3-0.2,37.8c0,14.3-0.3,28.3-0.4,41.9c-0.1,13.6-0.4,26.8-0.7,39.2
		c-0.2,12.5-0.6,24.3-0.9,35.1c-0.6,21.8-1.4,39.9-2,52.6c-0.6,12.7-1.1,20-1.1,20s-0.4-7.3-1.1-20c-0.6-12.7-1.4-30.8-2-52.6
		c-0.3-10.9-0.7-22.7-0.9-35.1c-0.3-12.5-0.6-25.6-0.7-39.2c-0.1-13.6-0.4-27.7-0.4-41.9c-0.1-12.5-0.1-25.1-0.2-37.8
		c-13.9-0.1-27.7-0.1-41.3-0.2c-1.1,0-2.1,0-3.1,0c0,12.3-0.1,24.6-0.2,36.7c0,13.8-0.3,27.4-0.4,40.6c-0.1,13.2-0.4,25.9-0.7,38
		c-0.2,12.1-0.6,23.5-0.9,34c-0.6,21.1-1.4,38.7-2,51c-0.6,12.3-1.1,19.3-1.1,19.3s-0.4-7-1.1-19.3c-0.6-12.3-1.4-29.9-2-51
		c-0.3-10.5-0.7-22-0.9-34c-0.3-12.1-0.6-24.8-0.7-38c-0.1-13.2-0.4-26.8-0.4-40.6c0-12.1-0.1-24.4-0.2-36.7
		c-10.7-0.1-21.2-0.3-31.4-0.4c-4.4,0-8.7-0.1-13-0.2c-0.1,11.5-0.1,22.9-0.2,34.2c0,12.8-0.3,25.5-0.5,37.7
		c-0.1,12.2-0.4,24-0.7,35.2c-0.2,11.2-0.6,21.8-0.9,31.6c-0.6,19.5-1.4,35.8-2,47.2c-0.6,11.4-1.1,17.9-1.1,17.9s-0.4-6.5-1.1-17.9
		c-0.6-11.4-1.4-27.7-2-47.2c-0.3-9.8-0.7-20.4-0.9-31.6c-0.3-11.2-0.6-23-0.7-35.2c-0.1-12.2-0.4-24.8-0.4-37.7
		c-0.1-11.4-0.1-22.9-0.2-34.4c-6.3-0.1-12.6-0.3-18.6-0.4c-9-0.2-17.7-0.4-26-0.6c0,9.1-0.1,18.2-0.1,27.2
		c0,10.1-0.3,20.1-0.4,29.7c-0.1,9.6-0.4,18.9-0.7,27.8c-0.2,8.8-0.6,17.2-0.9,24.9c-0.6,15.4-1.3,28.3-1.9,37.2
		c-0.6,9-1,14.1-1,14.1s-0.4-5.1-1-14.1c-0.6-9-1.3-21.8-1.9-37.2c-0.3-7.7-0.7-16.1-0.9-24.9c-0.3-8.8-0.6-18.1-0.7-27.8
		c-0.1-9.6-0.4-19.6-0.4-29.7c0-9.1-0.1-18.3-0.2-27.5c-0.5,0-1.1,0-1.6,0c-16.9-0.5-31.7-1-43.7-1.5c0,4.7-0.1,9.4-0.1,14
		c0,5.2-0.3,10.2-0.4,15.2c-0.1,4.9-0.4,9.7-0.6,14.2c-0.2,4.5-0.5,8.8-0.8,12.7c-0.5,7.9-1.2,14.4-1.7,19c-0.5,4.6-0.9,7.2-0.9,7.2
		s-0.4-2.6-0.9-7.2c-0.5-4.6-1.2-11.1-1.7-19c-0.3-3.9-0.6-8.2-0.8-12.7c-0.2-4.5-0.5-9.3-0.6-14.2c-0.1-4.9-0.4-10-0.4-15.2
		c0-4.8-0.1-9.6-0.1-14.4c-1.3-0.1-2.5-0.1-3.7-0.2c-6.8-0.3-12.2-0.6-15.9-0.8c-3.7-0.2-5.6-0.3-5.6-0.3s2-0.1,5.6-0.3
		c3.7-0.2,9-0.4,15.9-0.8c1.2-0.1,2.4-0.1,3.7-0.2c0-4.8,0.1-9.6,0.1-14.4c0.1-5.2,0.3-10.2,0.4-15.2c0.1-4.9,0.4-9.7,0.6-14.2
		c0.2-4.5,0.5-8.8,0.8-12.7c0.5-7.9,1.2-14.4,1.7-19c0.5-4.6,0.9-7.2,0.9-7.2s0.4,2.6,0.9,7.2c0.5,4.6,1.2,11.1,1.7,19
		c0.3,3.9,0.6,8.2,0.8,12.7c0.2,4.5,0.5,9.3,0.6,14.2c0.1,4.9,0.4,10,0.4,15.2c0,4.6,0.1,9.3,0.1,14c12.1-0.5,26.9-1,43.7-1.5
		c0.5,0,1.1,0,1.6,0c0.1-9.2,0.1-18.4,0.2-27.5c0-10.1,0.3-20.1,0.4-29.7c0.1-9.6,0.4-18.9,0.7-27.8c0.2-8.8,0.6-17.2,0.9-24.9
		c0.6-15.4,1.3-28.3,1.9-37.2c0.6-9,1-14.1,1-14.1s0.4,5.1,1,14.1c0.6,9,1.3,21.8,1.9,37.2c0.3,7.7,0.7,16.1,0.9,24.9
		c0.2,8.8,0.6,18.1,0.7,27.8c0.1,9.6,0.4,19.6,0.4,29.7c0.1,9,0.1,18.1,0.2,27.2c8.3-0.2,17-0.4,26-0.6c6.1-0.1,12.3-0.3,18.6-0.4
		c0-11.5,0.1-23.1,0.2-34.4c0-12.8,0.3-25.5,0.5-37.7c0.1-12.2,0.4-24,0.7-35.2c0.2-11.2,0.6-21.8,0.9-31.6
		c0.6-19.5,1.4-35.8,2-47.2c0.3-5.7,0.6-10.2,0.8-13.2c0.2-3,0.3-4.7,0.3-4.7s0.1,1.6,0.3,4.7c0.2,3.1,0.5,7.5,0.8,13.2
		c0.6,11.4,1.4,27.7,2,47.2c0.3,9.8,0.7,20.4,0.9,31.6c0.3,11.2,0.6,23,0.7,35.2c0.1,12.2,0.4,24.8,0.4,37.7
		c0.1,11.3,0.1,22.8,0.2,34.2c4.3-0.1,8.6-0.1,13-0.2c10.3-0.1,20.8-0.3,31.4-0.4c0.1-12.3,0.1-24.6,0.2-36.7
		c0-13.8,0.3-27.4,0.4-40.6c0.1-13.2,0.5-25.9,0.7-38c0.2-12.1,0.6-23.5,0.9-34c0.6-21.1,1.4-38.7,2-51c0.3-6.2,0.6-11,0.8-14.3
		c0.2-3.3,0.3-5,0.3-5s0.1,1.7,0.3,5c0.2,3.3,0.4,8.1,0.8,14.3c0.6,12.3,1.4,29.9,2,51c0.3,10.5,0.7,22,0.9,34
		c0.3,12.1,0.6,24.8,0.7,38c0.1,13.2,0.4,26.8,0.5,40.6c0.1,12.1,0.1,24.4,0.2,36.7c1.1,0,2.1,0,3.1,0c13.6-0.1,27.5-0.1,41.3-0.2
		c0.1-12.7,0.1-25.3,0.2-37.8c0-14.3,0.3-28.3,0.5-41.9c0.1-13.6,0.5-26.8,0.7-39.2c0.2-12.5,0.6-24.3,0.9-35.1
		c0.6-21.8,1.4-39.9,2-52.6c0.3-6.3,0.6-11.3,0.8-14.7c0.2-3.4,0.3-5.2,0.3-5.2s0.1,1.8,0.3,5.2c0.2,3.4,0.4,8.4,0.8,14.7
		c0.6,12.7,1.4,30.8,2,52.6c0.3,10.9,0.7,22.7,0.9,35.1c0.3,12.5,0.6,25.6,0.7,39.2c0.1,13.6,0.4,27.7,0.5,41.9
		c0,12.5,0.1,25.1,0.2,37.8c13.9,0.1,27.7,0.1,41.3,0.2c1.1,0,2.1,0,3.1,0c0.1-12.3,0.1-24.5,0.2-36.7c0-13.8,0.3-27.4,0.5-40.6
		c0.1-13.2,0.4-25.9,0.7-38c0.2-12.1,0.6-23.5,0.9-34c0.6-21.1,1.4-38.7,2-51c0.3-6.2,0.6-11,0.8-14.3c0.2-3.3,0.3-5,0.3-5
		s0.1,1.7,0.3,5c0.2,3.3,0.4,8.1,0.8,14.3c0.6,12.3,1.4,29.9,2,51c0.3,10.5,0.7,22,0.9,34c0.3,12.1,0.6,24.8,0.7,38
		c0.1,13.2,0.4,26.8,0.4,40.6c0.1,12.1,0.1,24.4,0.2,36.7c10.7,0.1,21.2,0.3,31.4,0.4c4.4,0,8.7,0.1,13,0.2
		c0-11.5,0.1-22.9,0.2-34.2c0-12.8,0.3-25.5,0.4-37.7c0.1-12.2,0.5-24,0.7-35.2c0.2-11.2,0.6-21.8,0.9-31.6
		c0.6-19.5,1.4-35.8,2-47.2c0.3-5.7,0.6-10.2,0.8-13.2c0.2-3,0.3-4.7,0.3-4.7s0.1,1.6,0.3,4.7c0.2,3.1,0.5,7.5,0.8,13.2
		c0.6,11.4,1.4,27.7,2,47.2c0.3,9.8,0.7,20.4,0.9,31.6c0.3,11.2,0.6,23,0.7,35.2c0.1,12.2,0.4,24.8,0.5,37.7
		c0.1,11.4,0.1,22.9,0.2,34.4c6.3,0.1,12.6,0.3,18.6,0.4c9,0.2,17.7,0.4,26,0.6c0.1-9.1,0.1-18.2,0.2-27.2c0-10.1,0.3-20.1,0.4-29.7
		c0.1-9.6,0.4-18.9,0.7-27.8c0.2-8.8,0.6-17.2,0.9-24.9c0.6-15.4,1.3-28.3,1.9-37.2c0.6-9,1-14.1,1-14.1s0.4,5.1,1,14.1
		c0.6,9,1.3,21.8,1.9,37.2c0.3,7.7,0.7,16.1,0.9,24.9c0.2,8.8,0.6,18.1,0.7,27.8c0.1,9.6,0.4,19.6,0.4,29.7c0,9.1,0.1,18.2,0.2,27.4
		c0.5,0,1.1,0,1.6,0c16.9,0.5,31.7,1,43.7,1.5c0-4.7,0.1-9.4,0.1-14c0-5.2,0.3-10.2,0.4-15.2c0.1-4.9,0.4-9.7,0.6-14.2
		c0.2-4.5,0.5-8.8,0.8-12.7c0.5-7.9,1.2-14.4,1.7-19c0.5-4.6,0.9-7.2,0.9-7.2s0.4,2.6,0.9,7.2c0.5,4.6,1.2,11.1,1.7,19
		c0.3,3.9,0.6,8.2,0.8,12.7c0.2,4.5,0.5,9.3,0.6,14.2c0.1,4.9,0.4,10,0.4,15.2c0,4.8,0.1,9.6,0.1,14.4c1.3,0.1,2.5,0.1,3.7,0.2
		c6.8,0.3,12.2,0.6,15.9,0.8c0,0,0,0,0.1,0l-0.1-6c-0.1-2.1-0.1-4.3-0.1-6.4l-0.4-6.3c-2.5-33.7-11.7-65.7-25.7-93.4
		c-14-27.7-32.5-51.2-52.3-69.8c-20-18.5-41.1-32.4-61.1-42.2c-20-9.8-38.7-15.7-54.3-19.2c-15.7-3.5-28.3-4.8-36.9-5.6
		c-8.6-0.5-13.2-0.7-13.2-0.7s4.6,0,13.2,0c8.6,0.4,21.4,0.8,37.4,3.8c16,2.9,35.1,8.1,55.9,17.2c20.8,9.1,43.1,22.5,64.2,41
		c21,18.6,40.9,42.3,56.1,70.9c15.2,28.5,25.8,61.7,28.6,97C758.5,497.1,754.4,534.3,741.8,569.4z M805.6,542.7l-35.8,6.3
		c5.3-21.4,8.1-43.8,8.1-66.8c0-23-2.8-45.4-8.1-66.8l35.8,6.4V542.7z M818.8,409.6c0.1,2.5,0.2,4.9,0.2,7.4
		c0.1,3.1,0.2,6.2,0.2,9.3l0.1,18.7l-0.1,18.7c0,6.2-0.2,12.4-0.3,18.7l-0.4,18.7c-0.1,6.2-0.3,12.4-0.5,18.7l-0.6,18.7l-0.8,18.7
		l-0.8-18.7l-0.6-18.7c-0.2-6.2-0.4-12.4-0.5-18.7l-0.4-18.7c-0.1-6.2-0.3-12.5-0.3-18.7l-0.1-18.7l0.1-18.7c0-3.1,0.1-6.2,0.2-9.3
		c0.1-3.1,0.1-6.2,0.3-9.3l0.1-2.4l2.1,0.2l24.6,2.2L818.8,409.6z"/>
</g>
<g>
	<path class="st5" d="M560.6,180.1c3.2,30-2.2,60.8-35.4,69.2c15.3-55.2-1.8-117.9-60.7-137.2c24.3,24.3,19.5,58.5-0.5,83.2
		c-6.9-24.9-24.8-33.1-24.8-33.1c9.4,31.2,1.5,54.8-5,67.3c-2.3,3.2-4.4,6.5-6.3,10c0,0,0,0,0,0l0,0c-4.7,8.8-7.8,18.5-8.3,29.9
		c-1.7,46,32.6,72.7,75.9,74.1c52.7,0,83.4-34.4,84.7-85.3C581,229.7,570,207.1,560.6,180.1z"/>
	<path class="st6" d="M516.9,278.6c-13.3-11.8-25.7-17.9-26.8-36.5c-0.5-8.9,1.6-18.2,5.5-26.4c-44.6,35.2-59.7,87.3-10.3,127.1
		c3.4,0.4,6.8,0.8,10.3,0.9c6.4,0,12.5-0.5,18.3-1.5C536.6,324.7,532.8,292.7,516.9,278.6z"/>
	<g>
		<path class="st6" d="M492.9,148.8c-0.2-1.5-0.3-2.3-0.3-2.3s0.1,3.2-0.3,8.8c-0.5,5.6-2,13.4-5.4,22.3c-1.8,4.4-3.9,9-6.7,13.6
			c-2.7,4.6-6.2,9.1-10.1,13.6c-3.8,4.4-8,8.7-12.3,13.3c0.3-1.4,0.7-2.8,0.8-4.3c0.1-2,0.6-4.1,0.5-6.2c0-2.1,0.1-4.2-0.3-6.3
			l-0.4-3.1l-0.7-3.1c-0.4-2-1.1-4-1.6-5.8c-0.7-1.8-1.4-3.6-2.1-5.2c-0.8-1.6-1.5-3.1-2.3-4.5c-3.1-5.4-6-8.4-6-8.4
			s2.6,3.3,5.1,8.9c0.7,1.4,1.2,2.9,1.8,4.6c0.6,1.6,1.1,3.4,1.6,5.2c0.3,1.9,0.9,3.7,1,5.7l0.3,3l0.1,3c0.1,2-0.2,4-0.3,5.9
			c-0.1,1.9-0.7,3.8-1,5.6c-0.3,1.8-1.1,3.5-1.5,5.1c-0.4,1.6-1.2,3-1.8,4.4c-0.7,1.3-1.1,2.6-1.8,3.6c-0.6,1-1.2,1.9-1.6,2.6
			c-0.9,1.5-1.4,2.3-1.4,2.3l0.1,0c-0.5,0.6-1.1,1.2-1.6,1.9c-4.1,5.2-7.7,10.8-10.5,17l-1.8,4.4c-0.6,1.8-1,3.2-1.5,4.8
			c-0.8,3.2-1.4,6.3-1.7,9.5c-0.6,6.3-0.1,12.4,1.1,18.1c1.1,5.6,3.2,10.7,5.6,15.1c2.3,4.4,5.2,8,7.8,11c2.7,2.9,5.4,5.2,7.7,6.9
			c1.2,0.8,2.2,1.5,3.1,2.2c1,0.5,1.8,1,2.4,1.3c1.3,0.7,2,1.1,2,1.1s-0.6-0.5-1.9-1.4c-0.6-0.5-1.3-1-2.2-1.7
			c-0.8-0.7-1.7-1.6-2.8-2.5c-2-1.9-4.4-4.4-6.7-7.4c-2.2-3.1-4.5-6.8-6.4-11.1c-3.9-8.5-5.9-19.5-4.4-30.9c0.3-2.9,1-5.7,1.8-8.5
			c0.5-1.4,0.9-2.7,1.4-4.1l1.8-4.4c2.5-5.3,6-10.6,9.8-15.4c3.8-4.9,8.1-9.7,12.4-14.3c4.3-4.6,8.5-9.4,12.3-14.1
			c3.9-4.8,7.3-9.8,9.9-14.8c2.7-4.9,4.6-10.1,6-14.8c2.9-9.5,3.3-17.8,3.2-23.4C493.3,152.5,493.1,150.3,492.9,148.8z"/>
		<path class="st6" d="M571.2,245.1c-0.7-5.3-2-9.6-2.8-12.5c-0.9-3-1.5-4.6-1.5-4.6s0.2,1.7,0.5,4.8c0.3,3,0.6,7.4,0.7,12.6
			c0,2.6,0,5.4-0.1,8.3c-0.1,2.9-0.5,6.1-0.8,9.3c-0.2,1.6-0.4,3.2-0.6,4.8c-0.3,1.6-0.6,3.3-0.8,4.9c-0.6,3.3-1.4,6.6-2.3,9.9
			c-1.8,6.5-4.4,12.8-7.4,18.4c-1.6,2.8-3.1,5.4-4.9,7.7c-0.8,1.2-1.7,2.3-2.6,3.4c-0.8,1.1-1.7,2.1-2.6,3.1c-3.4,3.9-6.7,6.7-9,8.6
			c-2.4,1.8-3.8,2.9-3.8,2.9s1.6-0.7,4.4-2c1.3-0.8,3-1.7,4.8-2.9c1.8-1.2,3.8-2.6,5.8-4.4c2.1-1.7,4.2-3.8,6.2-6.1
			c2-2.3,4-4.9,5.8-7.8c1.8-2.9,3.5-5.9,4.9-9.2c1.4-3.3,2.6-6.7,3.6-10.1c1-3.5,1.7-7,2.3-10.5c0.6-3.5,0.8-6.9,1-10.3
			C572.2,256.8,572,250.4,571.2,245.1z"/>
		<path class="st6" d="M521.6,203.7c-1-7.8-2.8-12.8-2.8-12.8s1.3,5.1,1.8,12.9c0.2,1.9,0.1,4.1,0.2,6.3c-0.1,2.2,0,4.6-0.3,7
			c-0.3,4.8-1.1,10-2.2,15c-0.5,2.5-1.3,5-1.9,7.4c-0.7,2.4-1.6,4.8-2.4,7c-0.8,2.3-1.8,4.4-2.7,6.4c-0.8,2-1.9,3.8-2.7,5.6
			c-0.9,1.7-1.6,3.3-2.5,4.6c-0.8,1.3-1.5,2.5-2.1,3.4c-1.2,1.9-1.8,3-1.8,3l5.4,3.4c0,0,0.6-1.2,1.7-3.3c0.5-1,1.2-2.3,1.9-3.8
			c0.8-1.4,1.4-3.2,2.2-5c0.8-1.9,1.7-3.8,2.4-6c0.7-2.2,1.6-4.4,2.3-6.9c0.6-2.4,1.4-4.9,1.9-7.5c0.4-2.6,1.1-5.2,1.4-7.8
			c0.7-5.3,1.1-10.5,1.1-15.5c0.1-2.5-0.2-4.9-0.2-7.1C522.1,207.8,522,205.6,521.6,203.7z"/>
		<path class="st6" d="M547.2,251.1c1.2-0.9,2.4-1.7,3.5-2.7c1.1-1,2.2-1.9,3-3c0.9-1.1,1.8-2.1,2.4-3.2c0.6-1.1,1.3-2.1,1.7-3.2
			c0.4-1,0.7-2,1-2.8c0.2-0.9,0.3-1.7,0.4-2.3c0.2-1.3,0.2-2,0.2-2s-0.4,0.6-1,1.7c-0.3,0.5-0.7,1.2-1.1,1.9
			c-0.5,0.7-1.1,1.4-1.6,2.3c-0.5,0.9-1.4,1.6-2.1,2.5c-0.7,0.9-1.7,1.6-2.5,2.5c-0.8,0.9-2,1.6-2.9,2.4c-1,0.8-2.2,1.5-3.2,2.3
			c-4.5,2.9-9.4,5.2-13.2,6.9c-3.9,1.6-6.5,2.7-6.5,2.7s2.9,0.3,7.2-0.4c2.1-0.4,4.6-0.9,7.1-1.9C542.1,254,544.7,252.6,547.2,251.1
			z"/>
	</g>
	<path class="st5" d="M486.8,229.3c-2.8,9.7-2.9,20.3,2.1,29.4c5.9,10.8,17.3,16.7,25.2,25.7c16.2,18.2,8.5,42.2-6.3,58.4
		c4.4-8.4,8.6-16.8,9.9-26.3c1.7-12.7-3-23.1-12.1-31.7c-8.4-7.9-17.9-14.7-22-26C480,248.8,481.8,238.5,486.8,229.3z"/>
	<path class="st5" d="M461.8,273.7c-0.2,12.2,3.1,24.6,8.2,35.6c5.7,12.3,14,22.3,21.9,33.2c-11.2-7.3-20.6-17.3-26.4-29.5
		C460,301.4,457,286,461.8,273.7z"/>
</g>
<g>
	
		<image style="overflow:visible;opacity:0.75;" width="1649" height="1889" xlink:href="64BE9C55.png"  transform="matrix(0.24 0 0 0.24 302.16 273.84)">
	</image>
	<g>
		<g>
			<path class="st7" d="M597,529.9V622c0,11.5-5.7,22.2-15.2,28.5l-31,20.7l-10.2,6.8L500,705.2L459.4,678l-10.2-6.8h0l-31-20.7
				c-9.5-6.4-15.2-17.1-15.2-28.5V499.7l45.8,30.6c6.6,4.4,10.6,11.9,10.6,19.9v49.3c0,6.7,3.3,12.9,8.9,16.6l31.7,21.2l31.7-21.2
				c5.5-3.7,8.9-9.9,8.9-16.6v-39.4L500,532.9l-21.9-14.6L403,468.1l-26.3-17.6v172.2l-41.3-27.6c-9.5-6.3-15.1-16.9-15.1-28.3v-223
				c0-11.4,5.7-22,15.1-28.3l41.3-27.6v94.7l26.3,17.6l56.4,37.7l40.6,27.1l50.8,33.9l9.5,6.4L597,529.9z"/>
			<linearGradient id="SVGID_1_" gradientUnits="userSpaceOnUse" x1="500.0102" y1="455.332" x2="577.9594" y2="455.332">
				<stop  offset="0" style="stop-color:#A7A9AC"/>
				<stop  offset="1" style="stop-color:#FFFFFF"/>
			</linearGradient>
			<path class="st8" d="M679.7,343.8v223c0,11.4-5.7,22-15.1,28.3l-41.3,27.6V450.5L550.8,499L500,465.1l123.3-82.4v-94.7l41.3,27.6
				C674,321.8,679.7,332.4,679.7,343.8z"/>
			<g>
				
					<linearGradient id="SVGID_00000079459886746110367600000013325425183057654157_" gradientUnits="userSpaceOnUse" x1="437.7194" y1="434.559" x2="470.3854" y2="401.8929">
					<stop  offset="0" style="stop-color:#A7A9AC"/>
					<stop  offset="1" style="stop-color:#FFFFFF"/>
				</linearGradient>
				<path style="fill:url(#SVGID_00000079459886746110367600000013325425183057654157_);" d="M597,371.9v15.5l-56.4,37.7v-31.6
					c0-6.7-3.3-12.9-8.9-16.6L500,355.8L468.3,377c-5.5,3.7-8.9,9.9-8.9,16.6v44.3L403,400.2v-28.3c0-12,6-23.2,15.9-29.8l81.1-54.2
					l81.1,54.2C591,348.8,597,360,597,371.9z"/>
			</g>
		</g>
	</g>
</g>
<path id="SVGID_x5F_00000044158699651452140900000012276193327041118358_x5F_" class="st10" d="M840.5,481.1
	c0-188.1-152.4-340.5-340.5-340.5S159.5,293,159.5,481.1S312,821.6,500,821.6S840.5,669.1,840.5,481.1z"/>
<text><textPath  xlink:href="#SVGID_x5F_00000044158699651452140900000012276193327041118358_x5F_" startOffset="1501.5341%">
<tspan  class="st7" style="font-family:'AzonixRegular'; font-size:53.4527px; letter-spacing:-35;">Madrid Steakhouse</tspan></textPath>
</text>
<g>
	<path class="st11" d="M198.6,585.6c6.7,19.2,15.1,37.6,25.2,55"/>
	<path class="st11" d="M776.2,640.5c10-17.4,18.5-35.7,25.2-55"/>
	<path class="st11" d="M589.7,175c99,29,178.1,104.7,211.7,201.6"/>
	<path class="st11" d="M198.6,376.6c33.6-97,112.7-172.7,211.7-201.6"/>
</g>
</svg>
